<svg xmlns="http://www.w3.org/2000/svg" width="247" height="38" viewBox="0 0 247 38">
  <g fill="none" fill-rule="evenodd">
    <circle cx="19" cy="19" r="19" fill="#262F5E"/>
    <path fill="#FFF" d="M19,26 C23.418278,26 27.418278,23.8333333 31,19.5 C27.418278,15.1666667 23.418278,13 19,13 C14.581722,13 10.581722,15.1666667 7,19.5 C10.581722,23.8333333 14.581722,26 19,26 Z"/>
    <circle cx="21.5" cy="19.5" r="4.5" fill="#262F5E"/>
    <path fill="#262F5E" fill-rule="nonzero" d="M55.008,17.04 C55.008,16.736 55.296,16.48 55.776,16.48 C56.496,16.48 57.072,17.04 57.664,17.04 C58.352,17.04 58.88,16.304 58.88,15.696 C58.88,14.64 57.28,14.032 55.84,14.032 C53.776,14.032 52.096,15.264 52.096,17.2 C52.096,18.784 53.2530178,19.5661065 54.3263213,20.147299 L54.896,20.448 C55.584,20.816 56.144,21.12 56.144,21.616 C56.144,22.016 55.776,22.304 55.2,22.304 C54.336,22.304 53.824,21.632 53.152,21.632 C52.416,21.632 52,22.432 52,23.04 C52,23.68 52.464,24.016 53.008,24.272 C53.712,24.592 54.448,24.736 55.184,24.736 C57.312,24.736 59.056,23.552 59.056,21.504 C59.056,20.192 58.352,19.392 57.52,18.832 C56.368,18.048 55.008,17.696 55.008,17.04 Z M70.92,23.072 L70.92,15.712 L70.9175418,15.3933169 C70.9089383,15.046716 70.8702222,14.784 70.696,14.56 C70.472,14.272 70.104,14.128 69.464,14.128 C68.824,14.128 68.456,14.272 68.232,14.56 C68.008,14.848 68.008,15.2 68.008,15.712 L68.008,17.872 L64.296,17.872 L64.296,15.712 C64.296,15.2 64.296,14.848 64.072,14.56 C63.848,14.272 63.48,14.128 62.84,14.128 C62.2,14.128 61.832,14.272 61.608,14.56 C61.384,14.848 61.384,15.2 61.384,15.712 L61.384,23.072 C61.384,23.584 61.384,23.936 61.608,24.224 C61.832,24.512 62.2,24.656 62.84,24.656 C63.48,24.656 63.848,24.512 64.072,24.224 C64.296,23.936 64.296,23.584 64.296,23.072 L64.296,20.448 L68.008,20.448 L68.008,23.072 C68.008,23.584 68.008,23.936 68.232,24.224 C68.456,24.512 68.824,24.656 69.464,24.656 C70.104,24.656 70.472,24.512 70.696,24.224 C70.92,23.936 70.92,23.584 70.92,23.072 Z M73.296,19.392 C73.296,22.496 75.424,24.784 78.816,24.784 C82.208,24.784 84.4,22.496 84.4,19.392 C84.4,16.288 82.272,14 78.88,14 C75.488,14 73.296,16.288 73.296,19.392 Z M76.24,19.392 C76.24,17.568 77.264,16.512 78.848,16.512 C80.432,16.512 81.456,17.568 81.456,19.392 C81.456,21.216 80.432,22.272 78.848,22.272 C77.264,22.272 76.24,21.216 76.24,19.392 Z M91.736,23.2 L93.208,18.576 L94.632,23.232 C94.904,24.128 95.288,24.656 96.68,24.656 C97.8685714,24.656 98.0993197,24.2641633 98.3950286,23.2593474 L100.504,15.76 C100.568,15.536 100.632,15.264 100.632,15.04 C100.632,14.464 100.216,14.128 99.176,14.128 C98.1149474,14.128 97.8437008,14.4726427 97.6276274,15.3659927 L96.424,20.784 L94.968,15.664 C94.76,14.96 94.488,14.464 93.32,14.464 C92.2463158,14.464 91.9539723,14.8995014 91.7667963,15.4725295 L90.216,20.784 L89.096,15.504 C88.888,14.528 88.52,14.128 87.416,14.128 C86.264,14.128 85.944,14.56 85.944,15.088 C85.944,15.328 86.008,15.6 86.072,15.84 L88.056,23.104 C88.344,24.176 88.552,24.656 89.816,24.656 C91.064,24.656 91.416,24.192 91.736,23.2 Z M113.512,19.76 L111.608,15.776 C111.064,14.64 110.632,14.128 109.448,14.128 C108.856,14.128 108.472,14.256 108.216,14.496 C107.910545,14.7723636 107.843107,15.1016198 107.785286,15.6761052 L107.048,22.944 C107.016,23.248 107,23.456 107,23.6 C107,24.352 107.48,24.656 108.376,24.656 C109.432,24.656 109.8,24.224 109.864,23.488 L110.232,18.368 L112.04,22.736 C112.28,23.296 112.568,23.728 113.416,23.728 C114.264,23.728 114.568,23.296 114.808,22.736 L116.616,18.384 L116.968,23.488 C117.032,24.256 117.448,24.656 118.488,24.656 C119.464,24.656 119.896,24.304 119.896,23.632 L119.889344,23.43488 C119.8832,23.31968 119.8736,23.1872 119.864,23.072 L119.16,15.856 C119.096,15.2 119.048,14.88 118.792,14.576 C118.504,14.24 118.088,14.128 117.56,14.128 C116.487111,14.128 116.042173,14.598963 115.53777,15.5948038 L113.512,19.76 Z M125.296,17.968 L125.296,16.688 L127.408,16.688 C127.92,16.688 128.272,16.688 128.56,16.496 C128.848,16.304 128.992,16 128.992,15.472 C128.992,14.928 128.848,14.624 128.56,14.432 C128.272,14.24 127.92,14.24 127.408,14.24 L123.888,14.24 C122.896,14.24 122.528,14.608 122.528,15.6 L122.528,23.216 C122.528,24.208 122.896,24.576 123.888,24.576 L127.696,24.576 C128.208,24.576 128.56,24.576 128.848,24.384 C129.136,24.192 129.28,23.888 129.28,23.36 C129.28,22.816 129.136,22.512 128.848,22.32 C128.56,22.128 128.208,22.128 127.696,22.128 L125.296,22.128 L125.296,20.416 L126.8,20.416 C127.312,20.416 127.664,20.416 127.952,20.224 C128.24,20.032 128.384,19.728 128.384,19.2 C128.384,18.656 128.24,18.352 127.952,18.16 C127.664,17.968 127.312,17.968 126.8,17.968 L125.296,17.968 Z M140.224,18.048 L138.768,15.424 C138.304,14.592 137.872,14.128 136.672,14.128 C135.68,14.128 135.232,14.448 135.232,14.96 C135.232,15.24 135.36675,15.50775 135.593375,15.8704375 L138.656,20.736 L138.656,23.072 C138.656,23.584 138.656,23.936 138.88,24.224 C139.104,24.512 139.472,24.656 140.112,24.656 C140.752,24.656 141.12,24.512 141.344,24.224 C141.568,23.936 141.568,23.584 141.568,23.072 L141.568,20.736 L144.704,15.936 L144.88625,15.648 C145.046,15.381 145.136,15.168 145.136,14.928 C145.136,14.464 144.816,14.128 143.792,14.128 C142.583111,14.128 142.230519,14.5846914 141.831147,15.2689355 L140.224,18.048 Z M146.12,19.392 C146.12,22.496 148.248,24.784 151.64,24.784 C155.032,24.784 157.224,22.496 157.224,19.392 C157.224,16.288 155.096,14 151.704,14 C148.312,14 146.12,16.288 146.12,19.392 Z M149.064,19.392 C149.064,17.568 150.088,16.512 151.672,16.512 C153.256,16.512 154.28,17.568 154.28,19.392 C154.28,21.216 153.256,22.272 151.672,22.272 C150.088,22.272 149.064,21.216 149.064,19.392 Z M164.336,22.256 C163.632,22.256 163.184,22.048 162.912,21.712 C162.552,21.28 162.516,20.7184 162.5124,20.225488 L162.512,15.712 C162.512,15.2 162.512,14.848 162.288,14.56 C162.064,14.272 161.696,14.128 161.056,14.128 C160.416,14.128 160.048,14.272 159.824,14.56 C159.6,14.848 159.6,15.2 159.6,15.712 L159.601781,20.3440625 C159.61425,21.342 159.714,22.392 160.512,23.344 C161.184,24.144 162.288,24.768 164.32,24.768 C166.352,24.768 167.456,24.144 168.128,23.344 C169.04,22.256 169.04,21.04 169.04,19.92 L169.04,15.712 C169.04,15.2 169.04,14.848 168.816,14.56 C168.592,14.272 168.224,14.128 167.6,14.128 C166.976,14.128 166.608,14.272 166.384,14.56 C166.16,14.848 166.16,15.2 166.16,15.712 L166.16,20.064 C166.16,20.592 166.16,21.232 165.76,21.712 C165.488,22.048 165.04,22.256 164.336,22.256 Z M174.824,20.912 L175.656,20.912 L175.804,21.184 C175.896,21.348 176.024,21.568 176.168,21.792 L177.272,23.456 C177.768,24.208 178.168,24.656 179.224,24.656 C180.6,24.656 180.92,23.888 180.408,23.2 L178.2,20.272 C179.256,19.68 179.832,18.688 179.832,17.408 C179.832,16.032 179.176,15.088 178.072,14.576 C177.176,14.16 176.2,14.096 175.32,14.096 C174.248,14.096 173.56,14.192 173.096,14.336 C172.072,14.656 172.072,15.344 172.072,15.92 L172.072,23.072 C172.072,23.584 172.072,23.936 172.28,24.224 C172.488,24.512 172.84,24.656 173.448,24.656 C174.056,24.656 174.408,24.512 174.616,24.224 C174.798,23.972 174.82075,23.671 174.823594,23.2566875 L174.824,20.912 Z M174.824,18.704 L174.824,16.56 L174.975001,16.5399835 C175.092642,16.5268148 175.268444,16.512 175.464,16.512 C176.296,16.512 176.92,16.768 176.92,17.568 C176.92,18.256 176.456,18.72 175.272,18.72 L174.824,18.704 L174.824,18.704 Z M195.45777,15.5948038 L193.432,19.76 L191.528,15.776 C190.984,14.64 190.552,14.128 189.368,14.128 C188.776,14.128 188.392,14.256 188.136,14.496 C187.830545,14.7723636 187.763107,15.1016198 187.705286,15.6761052 L186.968,22.944 C186.936,23.248 186.92,23.456 186.92,23.6 C186.92,24.352 187.4,24.656 188.296,24.656 C189.352,24.656 189.72,24.224 189.784,23.488 L190.152,18.368 L191.96,22.736 C192.2,23.296 192.488,23.728 193.336,23.728 C194.184,23.728 194.488,23.296 194.728,22.736 L196.536,18.384 L196.888,23.488 C196.952,24.256 197.368,24.656 198.408,24.656 C199.384,24.656 199.816,24.304 199.816,23.632 L199.809344,23.43488 C199.8032,23.31968 199.7936,23.1872 199.784,23.072 L199.08,15.856 C199.016,15.2 198.968,14.88 198.712,14.576 C198.424,14.24 198.008,14.128 197.48,14.128 C196.407111,14.128 195.962173,14.598963 195.45777,15.5948038 L195.45777,15.5948038 Z M201.792,19.392 C201.792,22.496 203.92,24.784 207.312,24.784 C210.704,24.784 212.896,22.496 212.896,19.392 C212.896,16.288 210.768,14 207.376,14 C203.984,14 201.792,16.288 201.792,19.392 Z M204.736,19.392 C204.736,17.568 205.76,16.512 207.344,16.512 C208.928,16.512 209.952,17.568 209.952,19.392 C209.952,21.216 208.928,22.272 207.344,22.272 C205.76,22.272 204.736,21.216 204.736,19.392 Z M218.088,18.624 L222.04,23.792 C222.456,24.336 222.888,24.704 223.768,24.704 C224.632,24.704 225.128,24.32 225.128,23.552 L225.128,15.712 C225.128,15.2 225.128,14.848 224.904,14.56 C224.696,14.272 224.344,14.128 223.72,14.128 C223.096,14.128 222.744,14.272 222.536,14.56 C222.312,14.848 222.312,15.2 222.312,15.712 L222.312,19.952 L218.76,15.088 L218.607938,14.8951562 C218.24525,14.45875 217.806,14.128 216.84,14.128 C215.768,14.128 215.272,14.56 215.272,15.248 L215.272,23.072 C215.272,23.584 215.272,23.936 215.496,24.224 C215.704,24.512 216.056,24.656 216.68,24.656 C217.304,24.656 217.656,24.512 217.864,24.224 C218.088,23.936 218.088,23.584 218.088,23.072 L218.088,18.624 Z M230.928,17.968 L230.928,16.688 L233.04,16.688 C233.552,16.688 233.904,16.688 234.192,16.496 C234.48,16.304 234.624,16 234.624,15.472 C234.624,14.928 234.48,14.624 234.192,14.432 C233.904,14.24 233.552,14.24 233.04,14.24 L229.52,14.24 C228.528,14.24 228.16,14.608 228.16,15.6 L228.16,23.216 C228.16,24.208 228.528,24.576 229.52,24.576 L233.328,24.576 C233.84,24.576 234.192,24.576 234.48,24.384 C234.768,24.192 234.912,23.888 234.912,23.36 C234.912,22.816 234.768,22.512 234.48,22.32 C234.192,22.128 233.84,22.128 233.328,22.128 L230.928,22.128 L230.928,20.416 L232.432,20.416 C232.944,20.416 233.296,20.416 233.584,20.224 C233.872,20.032 234.016,19.728 234.016,19.2 C234.016,18.656 233.872,18.352 233.584,18.16 C233.296,17.968 232.944,17.968 232.432,17.968 L230.928,17.968 Z M239.832,15.424 L241.288,18.048 L242.824,15.392 C243.256,14.64 243.576,14.128 244.856,14.128 C245.88,14.128 246.2,14.464 246.2,14.928 C246.2,15.248 246.04,15.52 245.768,15.936 L242.632,20.736 L242.632,23.072 C242.632,23.584 242.632,23.936 242.408,24.224 C242.184,24.512 241.816,24.656 241.176,24.656 C240.536,24.656 240.168,24.512 239.944,24.224 C239.72,23.936 239.72,23.584 239.72,23.072 L239.72,20.736 L236.76,16.032 C236.472,15.584 236.296,15.28 236.296,14.96 C236.296,14.448 236.744,14.128 237.736,14.128 C238.936,14.128 239.368,14.592 239.832,15.424 Z"/>
  </g>
</svg>
